<svg width="20" height="20" viewBox="0 0 20 20" fill="none" xmlns="http://www.w3.org/2000/svg">
<path d="M6.535 2.11599C5.495 1.85199 4.405 1.96399 3.551 2.44199C2.681 2.92799 2.071 3.78999 2.041 4.94299C1.995 6.74499 2.412 9.16299 4.068 12.001C5.703 14.804 7.508 16.484 9.006 17.482C9.952 18.113 10.997 18.13 11.89 17.719C12.77 17.314 13.484 16.505 13.855 15.502C13.9473 15.2525 13.9844 14.986 13.9637 14.7208C13.943 14.4556 13.865 14.1981 13.735 13.966L12.931 12.531C12.7688 12.2413 12.5505 11.9868 12.2889 11.7824C12.0272 11.578 11.7275 11.4278 11.4072 11.3404C11.0869 11.2531 10.7524 11.2305 10.4232 11.2738C10.094 11.3172 9.77678 11.4257 9.49 11.593L9.053 11.848C8.704 12.051 8.349 12.002 8.155 11.799C7.503 11.118 6.91 10.121 6.642 9.22299C6.567 8.97199 6.687 8.65499 7.014 8.44799L7.804 7.94599C8.3473 7.60109 8.73667 7.05996 8.89109 6.43523C9.0455 5.8105 8.95306 5.15028 8.633 4.59199L7.735 3.02599C7.60623 2.80158 7.43363 2.60538 7.22747 2.44904C7.02132 2.29271 6.78582 2.17944 6.535 2.11599ZM17.854 2.14599C17.9477 2.23975 18.0004 2.36691 18.0004 2.49949C18.0004 2.63207 17.9477 2.75923 17.854 2.85299L12.707 7.99899H16.5C16.6326 7.99899 16.7598 8.05167 16.8536 8.14544C16.9473 8.2392 17 8.36638 17 8.49899C17 8.6316 16.9473 8.75877 16.8536 8.85254C16.7598 8.94631 16.6326 8.99899 16.5 8.99899H11.5C11.3674 8.99899 11.2402 8.94631 11.1464 8.85254C11.0527 8.75877 11 8.6316 11 8.49899V3.49899C11 3.36638 11.0527 3.2392 11.1464 3.14544C11.2402 3.05167 11.3674 2.99899 11.5 2.99899C11.6326 2.99899 11.7598 3.05167 11.8536 3.14544C11.9473 3.2392 12 3.36638 12 3.49899V7.29199L17.146 2.14599C17.2398 2.05225 17.3669 1.9996 17.4995 1.9996C17.6321 1.9996 17.7602 2.05225 17.854 2.14599Z" fill="#0C1E35"/>
</svg>
