<svg width="45" height="45" viewBox="0 0 45 45" fill="none" xmlns="http://www.w3.org/2000/svg">
<path d="M11.6013 7.34073L14.2461 6.17544C15.1191 5.79128 16.102 5.7378 17.0114 6.02497C17.9209 6.31214 18.6948 6.92034 19.1889 7.73613L21.6402 11.7818C22.0656 12.4837 22.2606 13.3011 22.1976 14.1194C22.1347 14.9377 21.8171 15.7158 21.2893 16.3443L18.6938 19.4351C18.3468 19.8562 18.8231 21.273 20.5634 23.5839C22.3053 25.896 23.5363 26.7437 24.0294 26.5277L27.725 24.8822C28.4741 24.5486 29.3088 24.4577 30.1121 24.6224C30.9154 24.787 31.6471 25.1989 32.2045 25.8003L35.4068 29.2572C36.0536 29.9553 36.425 30.8644 36.4521 31.8156C36.4792 32.7668 36.16 33.6956 35.554 34.4293L33.6844 36.6925C33.0809 37.4231 32.2944 37.9806 31.4051 38.308C30.5158 38.6354 29.5556 38.721 28.6224 38.5562C24.0233 37.7435 19.424 34.2206 14.7761 28.0511C10.1184 21.8726 7.97911 16.4414 8.42741 11.7346C8.51793 10.7861 8.85976 9.87896 9.41766 9.10663C9.97556 8.33429 10.7293 7.72471 11.6013 7.34073Z" fill="white"/>
</svg>
