<svg width="17" height="21" viewBox="0 0 17 21" fill="none" xmlns="http://www.w3.org/2000/svg">
<path d="M5.92501 0.0499969L6.96201 0.247997C7.93401 0.432997 8.58701 1.341 8.48701 2.37L8.28901 4.417C8.20301 5.31 7.56901 6.07 6.72301 6.297L4.36601 6.928C3.98301 7.863 3.80701 8.894 3.84001 10.02C3.86349 11.1041 4.10424 12.1726 4.54801 13.162L6.75401 13.554C7.59001 13.702 8.21401 14.392 8.30201 15.266L8.50701 17.301C8.60901 18.317 7.96301 19.291 6.99501 19.58L5.95701 19.89C4.92501 20.197 3.83801 19.922 3.10501 19.168C1.37401 17.386 0.505006 14.415 0.500006 10.255C0.495006 6.09 1.35801 3.026 3.09001 1.065C3.81801 0.240997 4.89701 -0.145003 5.92501 0.0499969ZM12.696 5.147L12.78 5.219L16.777 9.217C16.904 9.34399 16.9813 9.51234 16.9946 9.69145C17.008 9.87056 16.9567 10.0485 16.85 10.193L16.777 10.277L12.781 14.281C12.6474 14.4155 12.4677 14.4944 12.2782 14.5018C12.0887 14.5092 11.9034 14.4446 11.7597 14.3209C11.6159 14.1972 11.5244 14.0236 11.5035 13.8351C11.4826 13.6466 11.5339 13.4572 11.647 13.305L11.719 13.221L14.431 10.504H8.00001C7.8186 10.5042 7.64325 10.4387 7.50645 10.3196C7.36965 10.2004 7.28068 10.0357 7.25601 9.856L7.25001 9.755C7.24977 9.57359 7.3153 9.39824 7.43444 9.26144C7.55359 9.12465 7.71828 9.03567 7.89801 9.011L8.00001 9.005L14.44 9.004L11.72 6.28C11.5927 6.15295 11.5153 5.9844 11.5019 5.80506C11.4885 5.62573 11.54 5.44755 11.647 5.303L11.72 5.219C11.8325 5.10662 11.9777 5.03289 12.1348 5.00844C12.2919 4.984 12.4527 5.0101 12.594 5.083L12.696 5.147Z" fill="#0C1E35"/>
</svg>
