<svg width="40" height="40" viewBox="0 0 40 40" fill="none" xmlns="http://www.w3.org/2000/svg">
<path d="M20 5C17.3976 4.99912 14.8398 5.67531 12.5778 6.96212C10.3158 8.24893 8.42758 10.1021 7.09855 12.3395C5.76952 14.5769 5.04545 17.1216 4.99748 19.7235C4.94952 22.3255 5.57931 24.8951 6.82498 27.18L5.04998 33.405C4.98753 33.6236 4.98586 33.8551 5.04517 34.0745C5.10448 34.294 5.22251 34.4931 5.38657 34.6505C5.55063 34.8079 5.7545 34.9175 5.97624 34.9676C6.19797 35.0178 6.42918 35.0065 6.64498 34.935L12.49 32.9875C14.4821 34.1387 16.7124 34.8162 19.0083 34.9675C21.3041 35.1189 23.604 34.74 25.7301 33.8603C27.8561 32.9806 29.7513 31.6236 31.269 29.8943C32.7866 28.165 33.8862 26.1097 34.4825 23.8875C35.0788 21.6653 35.1559 19.3356 34.7078 17.0788C34.2597 14.822 33.2985 12.6986 31.8984 10.8727C30.4984 9.04683 28.6971 7.56751 26.6339 6.54917C24.5707 5.53083 22.3008 5.00077 20 5ZM15 17.5C15 17.1685 15.1317 16.8505 15.3661 16.6161C15.6005 16.3817 15.9185 16.25 16.25 16.25H23.75C24.0815 16.25 24.3995 16.3817 24.6339 16.6161C24.8683 16.8505 25 17.1685 25 17.5C25 17.8315 24.8683 18.1495 24.6339 18.3839C24.3995 18.6183 24.0815 18.75 23.75 18.75H16.25C15.9185 18.75 15.6005 18.6183 15.3661 18.3839C15.1317 18.1495 15 17.8315 15 17.5ZM16.25 21.25H21.25C21.5815 21.25 21.8995 21.3817 22.1339 21.6161C22.3683 21.8505 22.5 22.1685 22.5 22.5C22.5 22.8315 22.3683 23.1495 22.1339 23.3839C21.8995 23.6183 21.5815 23.75 21.25 23.75H16.25C15.9185 23.75 15.6005 23.6183 15.3661 23.3839C15.1317 23.1495 15 22.8315 15 22.5C15 22.1685 15.1317 21.8505 15.3661 21.6161C15.6005 21.3817 15.9185 21.25 16.25 21.25Z" fill="white"/>
</svg>
