<svg width="26" height="18" viewBox="0 0 26 18" fill="none" xmlns="http://www.w3.org/2000/svg">
<path d="M23.0934 5.87499V4.83332C23.0934 4.26041 22.6247 3.79166 22.0518 3.79166C21.4788 3.79166 21.0101 4.26041 21.0101 4.83332V5.87499H19.9684C19.3955 5.87499 18.9268 6.34374 18.9268 6.91666C18.9268 7.48957 19.3955 7.95832 19.9684 7.95832H21.0101V8.99999C21.0101 9.57291 21.4788 10.0417 22.0518 10.0417C22.6247 10.0417 23.0934 9.57291 23.0934 8.99999V7.95832H24.1351C24.708 7.95832 25.1768 7.48957 25.1768 6.91666C25.1768 6.34374 24.708 5.87499 24.1351 5.87499H23.0934ZM8.51009 8.99999C10.8122 8.99999 12.6768 7.13541 12.6768 4.83332C12.6768 2.53124 10.8122 0.666656 8.51009 0.666656C6.20801 0.666656 4.34342 2.53124 4.34342 4.83332C4.34342 7.13541 6.20801 8.99999 8.51009 8.99999ZM8.51009 10.0417C5.72884 10.0417 0.176758 11.4375 0.176758 14.2083V17.3333H16.8434V14.2083C16.8434 11.4375 11.2913 10.0417 8.51009 10.0417ZM13.208 0.71874C14.1663 1.82291 14.7601 3.26041 14.7601 4.83332C14.7601 6.40624 14.1663 7.84374 13.208 8.94791C15.2497 8.68749 16.8434 6.95832 16.8434 4.83332C16.8434 2.70832 15.2497 0.979157 13.208 0.71874ZM17.3955 10.9062C18.3226 11.7708 18.9268 12.8542 18.9268 14.2083V17.3333H21.0101V14.2083C21.0101 12.6979 19.3538 11.5937 17.3955 10.9062Z" fill="#0C1E35"/>
</svg>
