<svg width="41" height="40" viewBox="0 0 41 40" fill="none" xmlns="http://www.w3.org/2000/svg">
<g clip-path="url(#clip0_6_245)">
<path d="M37.0333 11.6649C37.9174 11.6649 38.7652 12.0161 39.3904 12.6412C40.0155 13.2663 40.3667 14.1141 40.3667 14.9982V21.6649C40.3667 22.5489 40.0155 23.3968 39.3904 24.0219C38.7652 24.647 37.9174 24.9982 37.0333 24.9982H35.2633C34.857 28.2204 33.2888 31.1835 30.8529 33.3315C28.4171 35.4796 25.281 36.6648 22.0333 36.6649V33.3315C24.6855 33.3315 27.229 32.278 29.1044 30.4026C30.9798 28.5272 32.0333 25.9837 32.0333 23.3315V13.3315C32.0333 10.6794 30.9798 8.13583 29.1044 6.26047C27.229 4.38511 24.6855 3.33154 22.0333 3.33154C19.3812 3.33154 16.8376 4.38511 14.9623 6.26047C13.0869 8.13583 12.0333 10.6794 12.0333 13.3315V24.9982H7.03335C6.14929 24.9982 5.30144 24.647 4.67632 24.0219C4.0512 23.3968 3.70001 22.5489 3.70001 21.6649V14.9982C3.70001 14.1141 4.0512 13.2663 4.67632 12.6412C5.30144 12.0161 6.14929 11.6649 7.03335 11.6649H8.80334C9.21006 8.44303 10.7785 5.48033 13.2143 3.33267C15.6501 1.185 18.7859 0 22.0333 0C25.2808 0 28.4166 1.185 30.8524 3.33267C33.2882 5.48033 34.8566 8.44303 35.2633 11.6649H37.0333ZM14.9667 24.6399L16.7333 21.8132C18.3218 22.8083 20.159 23.3346 22.0333 23.3315C23.9077 23.3346 25.7449 22.8083 27.3333 21.8132L29.1 24.6399C26.9821 25.9668 24.5326 26.6687 22.0333 26.6649C19.5341 26.6688 17.0845 25.9669 14.9667 24.6399Z" fill="white"/>
</g>
<defs>
<clipPath id="clip0_6_245">
<rect width="40" height="40" fill="white" transform="translate(0.5)"/>
</clipPath>
</defs>
</svg>
