<svg width="41" height="40" viewBox="0 0 41 40" fill="none" xmlns="http://www.w3.org/2000/svg">
<g clip-path="url(#clip0_6_240)">
<path d="M24.9116 6.80167C24.9564 6.98622 25.044 7.15761 25.1674 7.30191C25.2909 7.44621 25.4466 7.55934 25.622 7.6321C25.7974 7.70485 25.9875 7.73519 26.1769 7.72064C26.3662 7.70608 26.5494 7.64705 26.7116 7.54833C30.7766 5.07333 35.4283 9.72333 32.9533 13.7883C32.8546 13.9504 32.7955 14.1335 32.7808 14.3228C32.7662 14.512 32.7964 14.702 32.869 14.8774C32.9415 15.0528 33.0545 15.2086 33.1986 15.3321C33.3427 15.4556 33.5139 15.5434 33.6983 15.5883C38.3233 16.71 38.3233 23.2883 33.6983 24.4117C33.5138 24.4564 33.3424 24.544 33.1981 24.6675C33.0538 24.7909 32.9406 24.9467 32.8679 25.1221C32.7951 25.2975 32.7648 25.4876 32.7793 25.6769C32.7939 25.8662 32.8529 26.0494 32.9516 26.2117C35.4266 30.2767 30.7766 34.9283 26.7116 32.4533C26.5495 32.3546 26.3664 32.2955 26.1772 32.2809C25.988 32.2662 25.7979 32.2964 25.6226 32.369C25.4472 32.4416 25.2914 32.5545 25.1679 32.6986C25.0443 32.8427 24.9566 33.0139 24.9116 33.1983C23.79 37.8233 17.2116 37.8233 16.0883 33.1983C16.0436 33.0138 15.9559 32.8424 15.8325 32.6981C15.7091 32.5538 15.5533 32.4407 15.3779 32.3679C15.2025 32.2951 15.0124 32.2648 14.8231 32.2794C14.6337 32.2939 14.4505 32.353 14.2883 32.4517C10.2233 34.9267 5.57164 30.2767 8.04664 26.2117C8.14536 26.0496 8.20444 25.8665 8.2191 25.6772C8.23375 25.488 8.20356 25.298 8.13098 25.1226C8.05839 24.9472 7.94546 24.7914 7.80136 24.6679C7.65726 24.5444 7.48604 24.4566 7.30164 24.4117C2.67664 23.29 2.67664 16.7117 7.30164 15.5883C7.48619 15.5436 7.65758 15.456 7.80188 15.3325C7.94618 15.2091 8.05931 15.0533 8.13206 14.8779C8.20482 14.7025 8.23516 14.5124 8.2206 14.3231C8.20605 14.1338 8.14702 13.9506 8.0483 13.7883C5.5733 9.72333 10.2233 5.07167 14.2883 7.54667C14.4502 7.64613 14.6334 7.70583 14.8229 7.72086C15.0124 7.73589 15.2027 7.70584 15.3783 7.63316C15.5539 7.56048 15.7098 7.44724 15.8332 7.30271C15.9566 7.15819 16.044 6.98649 16.0883 6.80167C17.21 2.17667 23.7883 2.17667 24.9116 6.80167ZM20.5 15C19.1739 15 17.9021 15.5268 16.9644 16.4645C16.0268 17.4021 15.5 18.6739 15.5 20C15.5 21.3261 16.0268 22.5979 16.9644 23.5355C17.9021 24.4732 19.1739 25 20.5 25C21.8261 25 23.0978 24.4732 24.0355 23.5355C24.9732 22.5979 25.5 21.3261 25.5 20C25.5 18.6739 24.9732 17.4021 24.0355 16.4645C23.0978 15.5268 21.8261 15 20.5 15Z" fill="white"/>
</g>
<defs>
<clipPath id="clip0_6_240">
<rect width="40" height="40" fill="white" transform="translate(0.5)"/>
</clipPath>
</defs>
</svg>
