<svg width="41" height="40" viewBox="0 0 41 40" fill="none" xmlns="http://www.w3.org/2000/svg">
<path d="M20.5 23.3333C22.8016 23.3333 24.885 22.4 26.3933 20.8917C27.9 19.385 28.8333 17.3017 28.8333 15C28.8333 12.6983 27.9 10.615 26.3933 9.10832C24.885 7.59999 22.8016 6.66666 20.5 6.66666C18.1983 6.66666 16.115 7.59999 14.6066 9.10832C13.1 10.615 12.1666 12.6983 12.1666 15C12.1666 17.3017 13.1 19.385 14.6066 20.8917C15.3797 21.6668 16.2983 22.2816 17.3096 22.7006C18.321 23.1197 19.4052 23.3347 20.5 23.3333ZM33.8333 25C34.3808 25.0011 34.9231 24.8941 35.4291 24.6851C35.9351 24.4761 36.3949 24.1692 36.782 23.7821C37.1692 23.3949 37.476 22.9352 37.685 22.4291C37.8941 21.9231 38.0011 21.3808 38 20.8333C38 19.6833 37.535 18.6417 36.78 17.8867C36.3934 17.4992 35.9341 17.1919 35.4284 16.9826C34.9227 16.7732 34.3806 16.6658 33.8333 16.6667C33.2858 16.6656 32.7435 16.7726 32.2375 16.9816C31.7315 17.1906 31.2717 17.4975 30.8846 17.8846C30.4975 18.2717 30.1906 18.7315 29.9816 19.2375C29.7726 19.7435 29.6655 20.2858 29.6666 20.8333C29.6658 21.3807 29.7729 21.923 29.982 22.4289C30.1911 22.9348 30.498 23.3945 30.8851 23.7816C31.2722 24.1686 31.7318 24.4755 32.2378 24.6846C32.7437 24.8937 33.2859 25.0009 33.8333 25ZM33.8333 25.9833C31.615 25.9833 29.9466 26.66 28.9716 27.5967C27.1133 26.0683 24.175 25 20.5 25C16.7233 25 13.8416 26.08 12.0133 27.6067C11.02 26.665 9.33331 25.9833 7.16665 25.9833C3.51998 25.9833 1.33331 27.8 1.33331 29.62C1.33331 30.5283 3.51998 31.44 7.16665 31.44C8.17331 31.44 9.07665 31.355 9.87165 31.2183L9.80498 31.6683C9.80498 33.335 13.815 35.0017 20.5 35.0017C26.77 35.0017 31.195 33.335 31.195 31.6683L31.1616 31.2433C31.9333 31.365 32.82 31.44 33.8333 31.44C37.2516 31.44 39.6666 30.5283 39.6666 29.62C39.6666 27.8 37.3783 25.9833 33.8333 25.9833ZM7.16665 25C8.31665 25 9.35831 24.535 10.1133 23.78C10.5008 23.3934 10.808 22.9341 11.0174 22.4284C11.2268 21.9227 11.3341 21.3806 11.3333 20.8333C11.3344 20.2858 11.2274 19.7435 11.0184 19.2375C10.8094 18.7315 10.5025 18.2717 10.1154 17.8846C9.72824 17.4975 9.26848 17.1906 8.76246 16.9816C8.25644 16.7726 7.71413 16.6656 7.16665 16.6667C6.61923 16.6658 6.07701 16.773 5.57109 16.982C5.06517 17.1911 4.6055 17.498 4.21841 17.8851C3.83132 18.2722 3.52444 18.7319 3.31536 19.2378C3.10628 19.7437 2.9991 20.2859 2.99998 20.8333C2.99888 21.3808 3.10591 21.9231 3.31491 22.4291C3.52392 22.9352 3.83079 23.3949 4.21792 23.7821C4.60505 24.1692 5.06481 24.4761 5.57083 24.6851C6.07685 24.8941 6.61916 25.0011 7.16665 25Z" fill="white"/>
</svg>
