<svg width="24" height="24" viewBox="0 0 24 24" fill="none" xmlns="http://www.w3.org/2000/svg">
<path d="M5.5 7.49C5.76522 7.49 6.01957 7.38464 6.20711 7.19711C6.39464 7.00957 6.5 6.75522 6.5 6.49V5.9L9.38 8.78C9.9425 9.3418 10.705 9.65736 11.5 9.65736C12.295 9.65736 13.0575 9.3418 13.62 8.78L18.21 4.19C18.3963 4.00264 18.5008 3.74919 18.5008 3.485C18.5008 3.22081 18.3963 2.96736 18.21 2.78C18.117 2.68627 18.0064 2.61188 17.8846 2.56111C17.7627 2.51034 17.632 2.4842 17.5 2.4842C17.368 2.4842 17.2373 2.51034 17.1154 2.56111C16.9936 2.61188 16.883 2.68627 16.79 2.78L12.21 7.36C12.117 7.45373 12.0064 7.52812 11.8846 7.57889C11.7627 7.62966 11.632 7.6558 11.5 7.6558C11.368 7.6558 11.2373 7.62966 11.1154 7.57889C10.9936 7.52812 10.883 7.45373 10.79 7.36L7.91 4.49H8.5C8.76522 4.49 9.01957 4.38464 9.20711 4.19711C9.39464 4.00957 9.5 3.75522 9.5 3.49C9.5 3.22478 9.39464 2.97043 9.20711 2.78289C9.01957 2.59536 8.76522 2.49 8.5 2.49H5.5C5.30371 2.49016 5.1118 2.54809 4.94821 2.65656C4.78461 2.76503 4.65655 2.91925 4.58 3.1C4.52962 3.22399 4.5025 3.35619 4.5 3.49V6.49C4.5 6.75522 4.60536 7.00957 4.79289 7.19711C4.98043 7.38464 5.23478 7.49 5.5 7.49ZM21.44 14.85C18.5924 12.6525 15.0969 11.4606 11.5 11.4606C7.9031 11.4606 4.40758 12.6525 1.56 14.85C1.25964 15.0922 1.01488 15.3961 0.842341 15.7412C0.669798 16.0863 0.573506 16.4644 0.559999 16.85C0.533886 17.2308 0.590029 17.6128 0.724617 17.9699C0.859204 18.3271 1.06908 18.6511 1.34 18.92L3.1 20.72C3.54974 21.1696 4.14469 21.4446 4.77854 21.4959C5.41239 21.5472 6.04382 21.3714 6.56 21L7.03 20.68C7.35004 20.4735 7.68419 20.2897 8.03 20.13C8.45508 19.9423 8.79395 19.6015 8.97923 19.1753C9.16451 18.7492 9.18263 18.2689 9.03 17.83L8.94 17.59C10.6522 17.1502 12.4478 17.1502 14.16 17.59L14.07 17.83C13.9174 18.2689 13.9355 18.7492 14.1208 19.1753C14.3061 19.6015 14.6449 19.9423 15.07 20.13C15.4158 20.2897 15.75 20.4735 16.07 20.68L16.54 21C16.9864 21.3276 17.5263 21.5029 18.08 21.5C18.7993 21.5009 19.4896 21.2168 20 20.71L21.81 18.89C22.0635 18.6145 22.256 18.2886 22.3749 17.9337C22.4938 17.5787 22.5364 17.2026 22.5 16.83C22.4764 16.4431 22.3695 16.0658 22.1865 15.7241C22.0036 15.3823 21.7489 15.0842 21.44 14.85ZM21 16.5L19.5 15.4842C19.3906 15.5982 17.1569 13.9818 17 14C16.8431 14.0182 15.6326 17.57 15.5 17.4842C15.31 17.3442 15.71 18.1142 15.5 17.9842C15.1478 17.7615 16.334 18.5737 15.96 18.39L16.36 17.3C16.4501 17.0507 18.1125 14.74 18 14.5C17.8875 14.26 16.7492 14.0903 16.5 14C13.7549 13.0003 9.74515 12.5003 7 13.5C6.75076 13.5903 6.80756 16.2958 6.69505 16.5358C6.58254 16.7758 6.56994 17.0507 6.66 17.3L7.02894 16.7062C6.64985 16.8826 8.97354 13.571 8.62005 13.7942L8.05 12.7568C7.91702 12.8522 6.52261 13.8127 6.35999 13.7942C6.19738 13.7758 3.35999 13.8803 3.35999 15.2942L1.85999 15.7942C1.74554 15.6879 2.58395 17.3498 2.54957 17.2656C2.51518 17.1813 2.49832 17.091 2.5 17C2.5083 16.8973 2.53741 16.7973 2.58554 16.7062C2.63368 16.6151 2.69984 16.5347 2.78 16.47C5.27926 14.5449 8.3453 13.501 11.5 13.501C14.6547 13.501 17.7207 14.5449 20.22 16.47C20.3002 16.5347 20.3663 16.6151 20.4145 16.7062C20.4626 16.7973 20.4917 16.8973 20.5 17C20.5017 17.091 20.4848 17.1813 20.4504 17.2656C20.416 17.3498 21.0649 16.4362 21 16.5Z" fill="#FF0000"/>
</svg>
